<mxfile host="app.diagrams.net" agent="Mozilla/5.0 (Windows NT 10.0; Win64; x64) AppleWebKit/537.36 (KHTML, like Gecko) Chrome/134.0.0.0 Safari/537.36" version="26.1.1">
  <diagram name="P치gina-1" id="QRq060BV0bQhOsTeEKcm">
    <mxGraphModel dx="880" dy="460" grid="1" gridSize="10" guides="1" tooltips="1" connect="1" arrows="1" fold="1" page="1" pageScale="1" pageWidth="827" pageHeight="1169" math="0" shadow="0">
      <root>
        <mxCell id="0" />
        <mxCell id="1" parent="0" />
        <mxCell id="aWyOBRJXslXyDOz51FoL-3" value="" style="edgeStyle=orthogonalEdgeStyle;rounded=0;orthogonalLoop=1;jettySize=auto;html=1;" edge="1" parent="1" source="aWyOBRJXslXyDOz51FoL-1" target="aWyOBRJXslXyDOz51FoL-2">
          <mxGeometry relative="1" as="geometry" />
        </mxCell>
        <mxCell id="aWyOBRJXslXyDOz51FoL-1" value="inicio" style="ellipse;whiteSpace=wrap;html=1;fillColor=#b0e3e6;strokeColor=#0e8088;" vertex="1" parent="1">
          <mxGeometry x="354" y="10" width="120" height="80" as="geometry" />
        </mxCell>
        <mxCell id="aWyOBRJXslXyDOz51FoL-5" value="" style="edgeStyle=orthogonalEdgeStyle;rounded=0;orthogonalLoop=1;jettySize=auto;html=1;" edge="1" parent="1" source="aWyOBRJXslXyDOz51FoL-2" target="aWyOBRJXslXyDOz51FoL-4">
          <mxGeometry relative="1" as="geometry" />
        </mxCell>
        <mxCell id="aWyOBRJXslXyDOz51FoL-2" value="horas = solicitar ao usu치rio&lt;div&gt;minutos =&amp;nbsp;&lt;span style=&quot;background-color: transparent; color: light-dark(rgb(0, 0, 0), rgb(255, 255, 255));&quot;&gt;solicitar ao usu치rio&lt;/span&gt;&lt;/div&gt;&lt;div&gt;valor_ph =&amp;nbsp;&lt;span style=&quot;background-color: transparent; color: light-dark(rgb(0, 0, 0), rgb(255, 255, 255));&quot;&gt;solicitar ao usu치rio&lt;/span&gt;&lt;/div&gt;" style="shape=parallelogram;perimeter=parallelogramPerimeter;whiteSpace=wrap;html=1;fixedSize=1;fillColor=#b0e3e6;strokeColor=#0e8088;" vertex="1" parent="1">
          <mxGeometry x="321" y="180" width="186" height="60" as="geometry" />
        </mxCell>
        <mxCell id="aWyOBRJXslXyDOz51FoL-7" value="" style="edgeStyle=orthogonalEdgeStyle;rounded=0;orthogonalLoop=1;jettySize=auto;html=1;" edge="1" parent="1" source="aWyOBRJXslXyDOz51FoL-4" target="aWyOBRJXslXyDOz51FoL-6">
          <mxGeometry relative="1" as="geometry" />
        </mxCell>
        <mxCell id="aWyOBRJXslXyDOz51FoL-4" value="tempo_total = horas+(minutos/60)&lt;div&gt;valor_total das horas extras = tempo_total*valor_ph&lt;/div&gt;" style="whiteSpace=wrap;html=1;fillColor=#b0e3e6;strokeColor=#0e8088;" vertex="1" parent="1">
          <mxGeometry x="306" y="320" width="216" height="60" as="geometry" />
        </mxCell>
        <mxCell id="aWyOBRJXslXyDOz51FoL-9" value="" style="edgeStyle=orthogonalEdgeStyle;rounded=0;orthogonalLoop=1;jettySize=auto;html=1;" edge="1" parent="1" source="aWyOBRJXslXyDOz51FoL-6" target="aWyOBRJXslXyDOz51FoL-8">
          <mxGeometry relative="1" as="geometry" />
        </mxCell>
        <mxCell id="aWyOBRJXslXyDOz51FoL-6" value="valor total das horas extras" style="shape=document;whiteSpace=wrap;html=1;boundedLbl=1;fillColor=#b0e3e6;strokeColor=#0e8088;" vertex="1" parent="1">
          <mxGeometry x="354" y="450" width="120" height="80" as="geometry" />
        </mxCell>
        <mxCell id="aWyOBRJXslXyDOz51FoL-8" value="fim" style="ellipse;whiteSpace=wrap;html=1;fillColor=#b0e3e6;strokeColor=#0e8088;" vertex="1" parent="1">
          <mxGeometry x="374" y="610" width="80" height="80" as="geometry" />
        </mxCell>
      </root>
    </mxGraphModel>
  </diagram>
</mxfile>
